#!OML:ASF F:\twosubjects\two\Thursday\Session 1\Rory.ASF
:FULLY-SPECIFIED
:DEGREES
651
root 7.56805 15.5763 10.8857 -147.404 -12.2969 164.448
lowerback 18.5431 1.48563 12.5098
upperback 4.70832 3.32472 8.31501
thorax -4.9301 0.931076 1.25036
lowerneck -6.95522 -11.2729 -6.03627
upperneck 1.24774 -15.5973 17.0957
head 3.39037 -7.32115 5.16221
rclavicle -2.22639e-014 -6.36111e-014
rhumerus 48.6129 -24.0356 -108.176
rradius 114.646
rwrist -123.988
rhand -45.9609 14.5926
rfingers 7.12502
rthumb -18.7081 -14.5278
lclavicle -2.22639e-014 -6.36111e-014
lhumerus -22.1587 -57.1275 117.219
lradius 81.5858
lwrist 8.12645
lhand -36.0117 56.5915
lfingers 7.12502
lthumb -9.12111 -993.626
rfemur -0.277135 16.4023 -20.6068
rtibia 28.8866
rfoot -8.74112 -30.7081
rtoes -18.1816
lfemur -71.0828 18.6852 -34.597
ltibia 67.4416
lfoot -18.5462 -6.31639
ltoes -3.74703
652
root 7.57434 15.571 10.8963 -147.329 -12.4433 164.322
lowerback 18.5961 1.36597 12.4002
upperback 4.74682 3.14749 8.34227
thorax -4.93644 0.845055 1.37686
lowerneck -6.96363 -11.1931 -6.14508
upperneck 1.07681 -15.4541 17.1744
head 3.34045 -7.25884 5.2192
rclavicle -6.36111e-015 -1.04958e-013
rhumerus 48.352 -23.2154 -107.2
rradius 116.109
rwrist -121.848
rhand -46.1527 11.7731
rfingers 7.12502
rthumb -18.8926 -17.3294
lclavicle -6.36111e-015 -1.04958e-013
lhumerus -20.9461 -57.0322 115.936
lradius 81.7817
lwrist 8.73584
lhand -36.2119 55.8437
lfingers 7.12502
lthumb -9.31427 -994.382
rfemur -0.17071 16.0419 -20.5952
rtibia 28.8907
rfoot -9.51936 -30.7732
rtoes -16.945
lfemur -71.1657 18.312 -34.5776
ltibia 67.5364
lfoot -18.5611 -6.276
ltoes -2.80818
653
root 7.57941 15.568 10.8967 -147.328 -12.1883 164.314
lowerback 18.4899 1.32725 12.1333
upperback 5.11398 2.94501 8.24569
thorax -4.49919 0.768841 1.45766
lowerneck -7.8824 -11.0911 -6.01033
upperneck 1.38874 -15.32 16.9649
head 3.54107 -7.14112 5.0929
rclavicle -1.33583e-013 -5.725e-014
rhumerus 48.1454 -21.8598 -106.096
rradius 117.018
rwrist -118.852
rhand -45.5729 8.58452
rfingers 7.12502
rthumb -18.3349 -20.5714
lclavicle -1.33583e-013 -5.725e-014
lhumerus -23.476 -55.7228 118.468
lradius 82.1443
lwrist 6.39566
lhand -36.1618 55.0269
lfingers 7.12502
lthumb -9.26591 -995.197
rfemur -0.342235 15.9027 -20.7612
rtibia 28.9399
rfoot -9.95308 -30.8687
rtoes -16.771
lfemur -71.2988 18.452 -34.7337
ltibia 67.6207
lfoot -18.6969 -5.97308
ltoes -3.85542
654
root 7.5802 15.5613 10.8942 -147.19 -11.6991 164.598
lowerback 18.1483 1.52716 11.6916
upperback 5.29707 3.0293 8.30389
thorax -4.14559 0.825762 1.74512
lowerneck -7.88963 -11.0193 -6.05917
upperneck 1.41217 -15.1872 16.7351
head 3.51692 -7.08024 5.04469
rclavicle 1.08139e-013 8.90555e-014
rhumerus 47.5491 -20.716 -104.276
rradius 117.6
rwrist -115.861
rhand -44.7204 6.01044
rfingers 7.12502
rthumb -17.5146 -23.2206
lclavicle 1.08139e-013 8.90555e-014
lhumerus -22.7171 -55.5485 117.667
lradius 82.4951
lwrist 6.45776
lhand -35.7318 55.6708
lfingers 7.12502
lthumb -8.85098 -994.535
rfemur -1.01558 15.8407 -20.9198
rtibia 29.0397
rfoot -9.4322 -31.0557
rtoes -18.5147
lfemur -71.7396 18.9818 -34.8969
ltibia 67.6852
lfoot -18.7852 -5.83165
ltoes -5.3819
655
root 7.58195 15.5507 10.9083 -147.237 -11.6826 164.549
lowerback 18.2007 1.53288 11.4937
upperback 5.43144 2.97517 8.34269
thorax -4.04409 0.799814 1.90546
lowerneck -7.78791 -10.9881 -6.07884
upperneck 1.21175 -15.1012 16.6777
head 3.42708 -7.05325 5.04918
rclavicle -1.59028e-014 -1.01778e-013
rhumerus 47.5086 -19.6308 -102.726
rradius 118.519
rwrist -113.097
rhand -44.3136 3.89312
rfingers 7.12502
rthumb -17.1231 -25.3723
lclavicle -1.59028e-014 -1.01778e-013
lhumerus -21.619 -55.3688 116.847
lradius 82.5401
lwrist 6.43285
lhand -35.4337 56.0005
lfingers 7.12502
lthumb -8.56329 -994.193
rfemur -1.05443 15.681 -20.9865
rtibia 29.1491
rfoot -9.3121 -31.1849
rtoes -19.7574
lfemur -71.6514 18.8051 -34.8918
ltibia 67.6806
lfoot -18.9826 -5.49662
ltoes -6.79742
656
root 7.58161 15.5382 10.9231 -147.367 -11.5348 164.745
lowerback 17.9069 1.44483 11.7619
upperback 5.82056 2.77682 7.99119
thorax -3.43375 0.737531 1.41921
lowerneck -7.70232 -10.8076 -5.74205
upperneck 0.871268 -14.8794 17.0033
head 3.29113 -6.96341 5.12932
rclavicle -5.08889e-014 -6.99722e-014
rhumerus 48.0111 -18.2152 -102.254
rradius 119.743
rwrist -109.948
rhand -44.0264 1.65695
rfingers 7.12502
rthumb -16.8466 -27.6323
lclavicle -5.08889e-014 -6.99722e-014
lhumerus -20.3255 -55.559 115.308
lradius 82.4709
lwrist 6.48706
lhand -35.3279 55.9813
lfingers 7.12502
lthumb -8.4612 -994.208
rfemur -1.18985 15.6998 -20.9739
rtibia 29.2297
rfoot -9.93231 -31.0213
rtoes -19.2186
lfemur -71.6329 18.9198 -34.7244
ltibia 67.7299
lfoot -18.9221 -5.32425
ltoes -7.03976
657
root 7.57907 15.5333 10.9352 -147.547 -11.4351 165.076
lowerback 18.1573 1.42136 11.6688
upperback 5.86841 2.74826 8.01603
thorax -3.52227 0.71215 1.50065
lowerneck -7.63563 -10.7031 -5.64437
upperneck 0.89505 -14.7439 16.9077
head 3.25616 -6.90326 5.1025
rclavicle -5.725e-014 -8.5875e-014
rhumerus 47.0845 -16.641 -100.046
rradius 120.092
rwrist -106.075
rhand -41.1496 -1.09144
rfingers 7.12502
rthumb -14.0758 -30.5947
lclavicle -5.725e-014 -8.5875e-014
lhumerus -20.5497 -55.2606 115.532
lradius 82.5671
lwrist 6.23264
lhand -35.5238 56.1154
lfingers 7.12502
lthumb -8.65032 -994.082
rfemur -1.30651 15.8532 -20.7906
rtibia 29.2727
rfoot -10.9117 -30.8444
rtoes -17.1636
lfemur -71.6662 19.1638 -34.4524
ltibia 67.8213
lfoot -18.7928 -5.40633
ltoes -6.7055
658
root 7.57687 15.5346 10.9455 -147.735 -11.1511 165.268
lowerback 18.9569 1.48676 11.235
upperback 5.65471 2.94066 8.05586
thorax -4.20462 0.776984 1.73433
lowerneck -7.81243 -10.5864 -5.56528
upperneck 1.43183 -14.6362 16.5125
head 3.39226 -6.82708 4.96301
rclavicle -1.59028e-014 -6.04305e-014
rhumerus 46.3361 -15.2434 -97.7431
rradius 121.225
rwrist -102.568
rhand -38.9888 -2.25824
rfingers 7.12502
rthumb -11.9928 -31.8947
lclavicle -1.59028e-014 -6.04305e-014
lhumerus -22.2859 -54.6456 117.051
lradius 82.8923
lwrist 5.41465
lhand -35.8297 55.5565
lfingers 7.12502
lthumb -8.94548 -994.653
rfemur -1.43827 16.2026 -20.8331
rtibia 29.3118
rfoot -12.1172 -30.7066
rtoes -14.3216
lfemur -71.6396 19.4453 -34.3554
ltibia 67.9659
lfoot -19.152 -5.28703
ltoes -7.27606
659
root 7.57212 15.5344 10.9627 -147.805 -10.6215 165.45
lowerback 19.1168 1.68773 10.9586
upperback 5.84228 3.15407 7.81758
thorax -4.0817 0.895773 1.57747
lowerneck -8.44803 -10.4857 -5.20109
upperneck 1.89215 -14.5787 16.3101
head 3.58462 -6.75445 4.81153
rclavicle -6.04305e-014 -1.08139e-013
rhumerus 46.0934 -13.8962 -95.5076
rradius 122.208
rwrist -98.3661
rhand -37.152 -2.96228
rfingers 7.12502
rthumb -10.2213 -32.6939
lclavicle -6.04305e-014 -1.08139e-013
lhumerus -21.0796 -55.2551 115.713
lradius 83.0011
lwrist 5.95572
lhand -35.961 54.83
lfingers 7.12502
lthumb -9.07217 -995.385
rfemur -1.87229 16.4395 -21.2115
rtibia 29.317
rfoot -11.8668 -30.4897
rtoes -14.6901
lfemur -71.7157 19.7148 -34.3433
ltibia 68.1129
lfoot -19.2645 -4.89243
ltoes -7.80261
660
root 7.56653 15.5299 10.9772 -147.829 -10.4218 165.553
lowerback 19.0312 1.71269 10.631
upperback 5.88142 3.12706 7.67125
thorax -4.01299 0.897863 1.60342
lowerneck -8.11081 -10.3449 -5.09683
upperneck 1.95083 -14.4429 16.4581
head 3.53684 -6.70072 4.86888
rclavicle 9.54166e-014 9.85972e-014
rhumerus 45.043 -12.2209 -92.975
rradius 122.795
rwrist -93.6197
rhand -34.8437 -4.45318
rfingers 7.12502
rthumb -7.99388 -34.282
lclavicle 9.54166e-014 9.85972e-014
lhumerus -20.9113 -55.299 115.263
lradius 83.3494
lwrist 6.39883
lhand -36.2314 54.5933
lfingers 7.12502
lthumb -9.33313 -995.633
rfemur -2.05846 16.4971 -21.3753
rtibia 29.2471
rfoot -10.965 -30.4601
rtoes -16.725
lfemur -71.7618 19.7481 -34.2305
ltibia 68.2311
lfoot -19.1315 -4.80809
ltoes -7.15749
661
root 7.56264 15.5203 10.9911 -147.781 -10.2575 165.671
lowerback 18.9161 1.68275 10.2684
upperback 5.92664 3.01509 7.53984
thorax -3.92854 0.857849 1.68376
lowerneck -7.90798 -10.0886 -5.19759
upperneck 1.8859 -14.1291 16.8068
head 3.48671 -6.56003 5.02949
rclavicle 6.67916e-014 1.59028e-013
rhumerus 44.2769 -10.4521 -90.6734
rradius 123.64
rwrist -89.5733
rhand -32.2224 -5.42281
rfingers 7.12502
rthumb -5.46349 -35.3324
lclavicle 6.67916e-014 1.59028e-013
lhumerus -20.7101 -54.9716 114.839
lradius 83.6947
lwrist 7.02588
lhand -36.0005 54.4639
lfingers 7.12502
lthumb -9.11024 -995.753
rfemur -2.2987 16.4585 -21.5008
rtibia 29.1955
rfoot -10.2912 -30.4657
rtoes -18.7653
lfemur -71.9611 19.8312 -34.1809
ltibia 68.3563
lfoot -19.2774 -4.83996
ltoes -6.4784
662
root 7.55569 15.5097 11.0092 -147.943 -10.0167 165.719
lowerback 19.3033 1.65426 9.92238
upperback 5.9287 2.97872 7.43191
thorax -4.1514 0.836482 1.75999
lowerneck -8.03887 -9.77245 -5.45422
upperneck 2.02215 -13.703 16.8677
head 3.52484 -6.34682 5.11866
rclavicle -2.54444e-014 -6.36111e-015
rhumerus 43.7078 -8.69903 -88.067
rradius 124.726
rwrist -86.302
rhand -29.9901 -4.83582
rfingers 7.12502
rthumb -3.30794 -34.7899
lclavicle -2.54444e-014 -6.36111e-015
lhumerus -20.6934 -54.5734 114.915
lradius 83.7992
lwrist 6.9741
lhand -35.5183 54.4501
lfingers 7.12502
lthumb -8.64498 -995.747
rfemur -2.33551 16.4455 -21.7459
rtibia 29.1318
rfoot -10.0931 -30.1335
rtoes -20.0532
lfemur -71.8522 19.8721 -34.0867
ltibia 68.4706
lfoot -19.4543 -4.67987
ltoes -6.67903
663
root 7.54413 15.4976 11.0328 -148.078 -9.86869 165.865
lowerback 19.6143 1.66693 9.6513
upperback 5.98256 2.97478 7.40227
thorax -4.2734 0.828045 1.87495
lowerneck -8.53101 -9.72597 -5.43015
upperneck 2.23289 -13.658 16.802
head 3.6579 -6.29533 5.07258
rclavicle -1.27222e-014 -3.18055e-014
rhumerus 43.1723 -6.89446 -85.243
rradius 125.782
rwrist -83.3131
rhand -28.3203 -4.44381
rfingers 7.12502
rthumb -1.69524 -34.4168
lclavicle -1.27222e-014 -3.18055e-014
lhumerus -20.6351 -54.4268 115.068
lradius 83.7228
lwrist 6.10454
lhand -35.9227 54.8517
lfingers 7.12502
lthumb -9.03519 -995.362
rfemur -2.31286 16.3898 -21.8581
rtibia 29.0438
rfoot -10.7636 -29.5346
rtoes -18.5362
lfemur -71.8396 19.8203 -33.8388
ltibia 68.6135
lfoot -19.3479 -4.47225
ltoes -5.5791
664
root 7.53003 15.4857 11.0541 -148.089 -9.72029 166.305
lowerback 19.6561 1.75328 9.70585
upperback 5.95321 3.12672 7.17931
thorax -4.30747 0.912953 1.56768
lowerneck -8.55043 -9.57149 -4.9014
upperneck 2.09006 -13.4908 16.745
head 3.55993 -6.22501 4.99159
rclavicle 9.54166e-015 -3.18055e-015
rhumerus 42.4048 -5.39925 -82.7403
rradius 126.873
rwrist -80.738
rhand -27.2419 -4.03491
rfingers 7.12502
rthumb -0.6537 -34.0137
lclavicle 9.54166e-015 -3.18055e-015
lhumerus -20.96 -54.6772 115.027
lradius 83.8818
lwrist 5.62136
lhand -35.9282 55.259
lfingers 7.12502
lthumb -9.0405 -994.955
rfemur -2.58046 16.3451 -21.7446
rtibia 28.9697
rfoot -11.2822 -29.1338
rtoes -17.1688
lfemur -72.1662 20.0191 -33.5242
ltibia 68.7975
lfoot -19.3079 -4.24255
ltoes -5.48601
665
root 7.52 15.484 11.0723 -148.144 -9.22206 167.078
lowerback 19.8619 1.9358 9.69128
upperback 5.93486 3.39876 7.01242
thorax -4.41652 1.04581 1.33067
lowerneck -8.48346 -9.23908 -4.80684
upperneck 1.85467 -13.0081 16.6429
head 3.41219 -6.01479 4.99836
rclavicle 6.36111e-014 1.36764e-013
rhumerus 41.8735 -3.45543 -80.1339
rradius 127.81
rwrist -78.7326
rhand -26.8794 -2.7406
rfingers 7.12502
rthumb -0.303583 -32.7201
lclavicle 6.36111e-014 1.36764e-013
lhumerus -21.0175 -54.5833 114.771
lradius 84.0189
lwrist 5.10098
lhand -35.6312 55.5611
lfingers 7.12502
lthumb -8.75395 -994.64
rfemur -3.40188 16.5304 -21.6268
rtibia 28.9116
rfoot -10.3047 -29.1963
rtoes -19.7981
lfemur -72.5882 20.7394 -33.1813
ltibia 69.0022
lfoot -19.5886 -4.06655
ltoes -8.05098
